<?xml version="1.0" encoding="utf-8"?>
<!-- Generator: Adobe Illustrator 21.1.0, SVG Export Plug-In . SVG Version: 6.00 Build 0)  -->
<svg version="1.1" id="Layer_1" xmlns="http://www.w3.org/2000/svg" xmlns:xlink="http://www.w3.org/1999/xlink" x="0px" y="0px"
	 viewBox="0 0 361 147.9" style="enable-background:new 0 0 361 147.9;" xml:space="preserve">
<style type="text/css">
	.st0{fill:#2A7DAF;}
	.st1{fill:#1E4677;}
	.st2{fill:#FFFFFF;}
	.st3{fill:#84B131;}
</style>
<path class="st0" d="M141.9,132.8L141.9,132.8c-1.8,0-3.2-1.6-3.2-3.6V87.6c0-2,1.4-3.6,3.2-3.6l0,0c1.8,0,3.2,1.6,3.2,3.6v41.6
	C145.1,131.2,143.7,132.8,141.9,132.8z"/>
<g>
	<path class="st1" d="M133.9,86.5c-9-10-16.1-21.1-20-34.2c-5.8-19.7,3.6-35.4,23.8-39c7-1.3,13.9-1.9,21,0.3
		c-1.6,0.3-3.2,0.7-4.8,1c-17.6,3.3-26.2,16-22.6,33.6c3.1,14.7,10.9,26.7,21.3,37.3c5.7,5.9,11.1,12.2,17.4,17.5
		c16,13.3,33.7,23.7,53.1,31.4c1.8,0.7,3.6,1.5,5.4,2.2c-31.6-5.5-59.8-18.4-84.9-39.8"/>
	<path class="st0" d="M305.7,31.7c16.3,31.8,32.1,62.8,48.2,94.4c-8.3,0-16.1,0.1-23.9-0.1c-0.8,0-1.9-1.3-2.4-2.2
		c-11-22-22-44-32.9-66.1c-0.5-1-1-2.5-0.6-3.3C297.8,46.9,301.5,39.7,305.7,31.7z"/>
	<path class="st0" d="M239.9,133.5c-15.3-7.7-30.6-15.4-46.4-23.3c4-2.9,7.4-4.7,10.1-7.4c10.3-10.1,14.1-22.4,12.3-36.8
		c-1.3-10.5-6.1-18.9-13.9-25.6c-11.2-9.7-28-10.5-39.6-2.4c-8.8,6.2-11.9,10.1-17.1,23.7c-1.8-4.1-3.4-7.7-4.8-11.3
		c-0.3-0.9,0-2.4,0.5-3.4c8.8-16.7,22.9-25.7,41.7-25.2c14.6,0.4,26,8.1,34.1,20.2c9.8,14.6,11.7,30.7,6.5,47.3
		c-1.8,5.6-5.2,10.8-8.6,15.6c-3.5,5-3.9,5.5,0.8,9.2c8.2,6.3,16.5,12.5,24.7,18.7C240.2,133.1,240,133.3,239.9,133.5z"/>
	<path class="st2" d="M181.9,41.2c14.9,0.1,26.9,11.8,26.8,26.1c-0.1,14-12.3,25.6-26.9,25.6c-14.7,0-26.5-11.5-26.5-25.9
		C155.3,52.8,167.3,41.1,181.9,41.2z M176.4,62.3c5.5,0.1,10.2-4.3,10.2-9.6s-4.6-9.8-10-9.9c-5.3-0.1-10.2,4.6-10.2,9.7
		C166.4,57.9,170.9,62.3,176.4,62.3z"/>
	<path class="st0" d="M289.5,63.3c4.2,8.3,8,15.8,11.7,23.4c0.4,0.8-0.1,2.3-0.6,3.3c-5.5,11.1-11,22.2-16.6,33.2
		c-0.6,1.2-2.1,2.7-3.3,2.7c-7.6,0.2-15.1,0.1-23.3,0.1C268.1,105.1,278.6,84.6,289.5,63.3z"/>
</g>
<path class="st3" d="M67.1,28.5c16.3,31.8,32.1,62.8,48.2,94.4c-8.3,0-16.1,0.1-23.9-0.1c-0.8,0-1.9-1.3-2.4-2.2
	c-11-22-22-44-32.9-66.1c-0.5-1-1-2.5-0.6-3.3C59.2,43.7,63,36.5,67.1,28.5"/>
<path class="st3" d="M50.9,60.1c4.2,8.3,8,15.8,11.7,23.4c0.4,0.8-0.1,2.3-0.6,3.3C56.5,97.9,51,109,45.4,120
	c-0.6,1.2-2.1,2.7-3.3,2.7c-7.6,0.2-15.1,0.1-23.3,0.1C29.5,101.9,40,81.4,50.9,60.1z"/>
</svg>
