<svg id="Layer_1" data-name="Layer 1" xmlns="http://www.w3.org/2000/svg" viewBox="0 0 326.33 129">
    <defs>
        <style>
            .cls-1,.cls-2,.cls-3,.cls-4,.cls-5{fill:none;stroke-width:2px;}.cls-1{stroke:#95bed7;}.cls-2{stroke:#8fa3bb;}.cls-3{stroke:#246293;}.cls-4{stroke:#c2d898;}.cls-5{stroke:#918f90;}.cls-6{fill:#1e4677;}.cls-7{fill:#2a7daf;}.cls-8{fill:#84b131;}.cls-9{fill:#231f20;}.cls-10{fill:#fff;}</style>
    </defs>
    <title>Artboard 1</title>
    <path class="cls-1"
        d="M115.54,81.19q-.35,16-.15,37.75a7.82,7.82,0,0,0,.34,2.33,1.14,1.14,0,0,0,.71.74,6.19,6.19,0,0,0,4.71-.1,1.21,1.21,0,0,0,.68-.71,6.39,6.39,0,0,0,.5-2q-.31-16.15.41-32.3" />
    <path class="cls-2"
        d="M122.74,86.89c22.88,19.25,48.35,31,77.25,37.75,1.83.43,13.49,2.89,14,2.22q.28-.34-.16-.38a23,23,0,0,1-5.22-1.09c-27-9.48-57-26.12-75.73-48.27q-1.33-1.58-3.56-3.94c-21-22.34-34.15-64.75,13.24-67q.39,0,0-.11c-17-4.34-44.16-1.69-49.82,18.12-5.37,18.79,9.57,41.66,21.81,54.57a4.48,4.48,0,0,1,.94,2.48" />
    <path class="cls-3" d="M122.74,86.89l-5.1-5.1a1.39,1.39,0,0,0-.79-.4l-1.31-.2" />
    <path class="cls-1"
        d="M188.66,98.44c3.19-4.25,6.68-8.74,8.77-13.18C210.52,57.45,197,20,165.06,13.54c-20-4-38.68,8.29-47.15,26.24a1.2,1.2,0,0,0-.06.91,73.23,73.23,0,0,0,6.31,13.91q.33.56.52-.07,1.74-5.89,2.5-7.76c7.81-19.14,30.54-28.09,48.31-15.46,13.84,9.84,18.48,27.33,13.75,43.25q-4.61,15.5-20.31,23a.51.51,0,0,0-.06.89,237.29,237.29,0,0,0,56.24,26.63q.71.23.07-.14a242.87,242.87,0,0,1-36.41-25.54.64.64,0,0,1-.11-1" />
    <path class="cls-4"
        d="M96.32,110.44a.31.31,0,0,0,.28-.45L50.16,19.14a.31.31,0,0,0-.56,0L37.9,41.94a.31.31,0,0,0,0,.28l33.81,68a.31.31,0,0,0,.28.17H96.32" />
    <path class="cls-1"
        d="M324.36,114.44a.3.3,0,0,0,.27-.44L278.14,23.14a.3.3,0,0,0-.54,0L265.89,46a.3.3,0,0,0,0,.27l33.84,68a.3.3,0,0,0,.27.17h24.36" />
    <path class="cls-5"
        d="M184.72,57.75c.14-13.84-11.27-25.18-25.5-25.33h0c-14.23-.15-25.88,10.95-26,24.79s11.27,25.18,25.5,25.33h0c14.23.15,25.88-10.95,26-24.79" />
    <path class="cls-4"
        d="M34.66,49.36a.31.31,0,0,0-.55,0L3.11,110a.31.31,0,0,0,.28.45H27.76a.31.31,0,0,0,.28-.17L46.48,73.46a.31.31,0,0,0,0-.28L34.66,49.36" />
    <path class="cls-1"
        d="M262.66,53.38a.31.31,0,0,0-.55,0l-31,60.61a.31.31,0,0,0,.28.45h24.37a.31.31,0,0,0,.28-.17l18.38-36.79a.31.31,0,0,0,0-.28L262.66,53.38" />
    <path class="cls-5"
        d="M163.22,43.63a9.25,9.25,0,0,0-9.43-9.06h0a9.25,9.25,0,0,0-9.39,9.1h0a9.42,9.42,0,0,0,18.82,0h0" />
    <path class="cls-6"
        d="M122.74,86.89l-5.1-5.1a1.39,1.39,0,0,0-.79-.4l-1.31-.2a4.48,4.48,0,0,0-.94-2.48C102.36,65.8,87.42,42.93,92.79,24.14,98.45,4.33,125.6,1.68,142.61,6q.37.1,0,.11c-47.39,2.3-34.28,44.71-13.24,67q2.23,2.36,3.56,3.94c18.72,22.15,48.73,38.79,75.73,48.27a23,23,0,0,0,5.22,1.09q.44,0,.16.38c-.54.67-12.2-1.79-14-2.22C171.09,117.86,145.62,106.14,122.74,86.89Z" />
    <path class="cls-7"
        d="M188.77,99.41A242.87,242.87,0,0,0,225.18,125q.64.37-.07.14a237.29,237.29,0,0,1-56.24-26.63.51.51,0,0,1,.06-.89q15.7-7.51,20.31-23c4.73-15.92.09-33.41-13.75-43.25-17.77-12.63-40.5-3.68-48.31,15.46q-.76,1.87-2.5,7.76-.19.63-.52.07a73.23,73.23,0,0,1-6.31-13.91,1.2,1.2,0,0,1,.06-.91C126.38,21.83,145,9.51,165.06,13.54,197,20,210.52,57.45,197.43,85.26c-2.09,4.44-5.58,8.93-8.77,13.18A.64.64,0,0,0,188.77,99.41Z" />
    <path class="cls-8"
        d="M96.32,110.44H72a.31.31,0,0,1-.28-.17l-33.81-68a.31.31,0,0,1,0-.28l11.7-22.8a.31.31,0,0,1,.56,0L96.6,110a.31.31,0,0,1-.28.45Z" />
    <path class="cls-7"
        d="M324.36,114.44H300a.3.3,0,0,1-.27-.17l-33.84-68a.3.3,0,0,1,0-.27L277.6,23.14a.3.3,0,0,1,.54,0L324.63,114a.3.3,0,0,1-.27.44Z" />
    <path class="cls-9"
        d="M184.72,57.75c-.14,13.84-11.79,24.94-26,24.79s-25.64-11.49-25.5-25.33h0c.14-13.84,11.79-24.94,26-24.79s25.64,11.49,25.5,25.33Zm-21.5-14.13a9.25,9.25,0,0,0-9.43-9.06h0a9.25,9.25,0,0,0-9.39,9.1h0a9.42,9.42,0,0,0,18.82,0Z" />
    <ellipse class="cls-10" cx="153.81" cy="43.64" rx="9.41" ry="9.08"
        transform="translate(-0.08 0.27) rotate(-0.1)" />
    <path class="cls-8"
        d="M34.66,49.36,46.48,73.18a.31.31,0,0,1,0,.28L28,110.27a.31.31,0,0,1-.28.17H3.39a.31.31,0,0,1-.28-.45l31-60.63a.31.31,0,0,1,.55,0Z" />
    <path class="cls-7"
        d="M262.66,53.38,274.43,77.2a.31.31,0,0,1,0,.28l-18.38,36.79a.31.31,0,0,1-.28.17H231.4a.31.31,0,0,1-.28-.45l31-60.61a.31.31,0,0,1,.55,0Z" />
    <path class="cls-7"
        d="M115.54,81.19l1.31.2a1.39,1.39,0,0,1,.79.4l5.1,5.1q-.72,16.15-.41,32.3a6.39,6.39,0,0,1-.5,2,1.21,1.21,0,0,1-.68.71,6.19,6.19,0,0,1-4.71.1,1.14,1.14,0,0,1-.71-.74,7.82,7.82,0,0,1-.34-2.33Q115.19,97.17,115.54,81.19Z" />
</svg>